<svg id="Capa_1" enable-background="new 0 0 512 512" height="512" viewBox="0 0 512 512" width="512" xmlns="http://www.w3.org/2000/svg" xmlns:xlink="http://www.w3.org/1999/xlink"><linearGradient id="SVGID_1_" gradientUnits="userSpaceOnUse" x1="256" x2="256" y1="512" y2="0"><stop offset="0" stop-color="#ffbef9"/><stop offset="1" stop-color="#fff1ff"/></linearGradient><linearGradient id="SVGID_2_" gradientUnits="userSpaceOnUse" x1="256" x2="256" y1="407" y2="105"><stop offset="0" stop-color="#ff81ff"/><stop offset="1" stop-color="#a93aff"/></linearGradient><g><g><circle cx="256" cy="256" fill="url(#SVGID_1_)" r="256"/></g><g><g><path d="m362.615 389.235h-49.629l-30.333-30.325v-14.087h62.192c4.911 0 8.885-3.973 8.885-8.882s-3.974-8.882-8.885-8.882h-106.614c-34.289 0-62.192-27.896-62.192-62.177 0-20.507 10.101-38.856 25.683-50.212-4.886-8.873-7.914-18.906-7.914-29.73 0-2.488.449-4.854.735-7.268-32.107 15.992-54.043 48.917-54.043 87.209 0 49.881 37.612 91.079 85.949 96.924l-27.436 27.429h-49.629c-4.911 0-8.885 3.973-8.885 8.882 0 4.91 3.974 8.882 8.885 8.882h213.23c4.911 0 8.885-3.973 8.885-8.882.001-4.908-3.973-8.881-8.884-8.881zm-124.384-266.47h8.885v.898c2.927-.424 5.843-.898 8.885-.898 34.289 0 62.192 27.896 62.192 62.176v-62.176h8.885c4.911 0 8.885-3.973 8.885-8.882 0-4.91-3.974-8.882-8.885-8.882h-88.846c-4.911 0-8.885 3.973-8.885 8.882-.001 4.909 3.973 8.882 8.884 8.882zm17.769 106.588c24.535 0 44.423-19.884 44.423-44.412s-19.888-44.412-44.423-44.412-44.423 19.883-44.423 44.412c0 24.527 19.888 44.412 44.423 44.412zm0-53.294c4.906 0 8.885 3.976 8.885 8.882 0 4.905-3.978 8.882-8.885 8.882s-8.885-3.977-8.885-8.882c0-4.906 3.979-8.882 8.885-8.882zm0 71.059c-3.042 0-5.958-.474-8.885-.898v18.662h71.077v-79.941c0 34.28-27.903 62.177-62.192 62.177zm-8.885 44.411c0 4.91 3.974 8.882 8.885 8.882h53.308c4.911 0 8.885-3.973 8.885-8.882v-8.882h-71.077v8.882z" fill="url(#SVGID_2_)"/></g></g></g></svg>